<svg xmlns="http://www.w3.org/2000/svg" xmlns:xlink="http://www.w3.org/1999/xlink" width="2000" zoomAndPan="magnify" viewBox="0 0 1500 1499.999933" height="2000" preserveAspectRatio="xMidYMid meet" version="1.0"><defs><g/><clipPath id="ca95d00503"><rect x="0" width="1305" y="0" height="260"/></clipPath></defs><g transform="matrix(1, 0, 0, 1, 98, 620)"><g clip-path="url(#ca95d00503)"><g fill="#ff271f" fill-opacity="1"><g transform="translate(0.839737, 194.219104)"><g><path d="M 144.09375 -181.421875 L 144.09375 -148.5 L 51.578125 -148.5 L 51.578125 -102.109375 L 129.84375 -102.109375 L 129.84375 -69.203125 L 51.578125 -69.203125 L 51.578125 0 L 17.625 0 L 17.625 -181.421875 Z M 144.09375 -181.421875 "/></g></g></g><g fill="#ff271f" fill-opacity="1"><g transform="translate(143.121943, 194.219104)"><g><path d="M 7.25 -65.578125 C 7.25 -75.242188 8.847656 -84.222656 12.046875 -92.515625 C 15.242188 -100.816406 19.78125 -107.988281 25.65625 -114.03125 C 31.53125 -120.082031 38.484375 -124.832031 46.515625 -128.28125 C 54.554688 -131.738281 63.328125 -133.46875 72.828125 -133.46875 C 81.640625 -133.46875 89.367188 -132.039062 96.015625 -129.1875 C 102.671875 -126.34375 108.421875 -122.414062 113.265625 -117.40625 C 114.640625 -116.019531 115.757812 -114.332031 116.625 -112.34375 C 117.488281 -110.363281 118.222656 -108.289062 118.828125 -106.125 C 119.429688 -103.96875 119.992188 -101.851562 120.515625 -99.78125 C 121.035156 -97.707031 121.640625 -95.71875 122.328125 -93.8125 L 127.765625 -95.640625 C 126.390625 -99.265625 124.878906 -103.234375 123.234375 -107.546875 C 121.597656 -111.867188 120.78125 -116.019531 120.78125 -120 L 120.515625 -129.59375 L 152.390625 -129.59375 L 152.390625 0 L 120.515625 0 L 120.78125 -10.625 C 120.78125 -14.601562 121.597656 -18.75 123.234375 -23.0625 C 124.878906 -27.382812 126.390625 -31.359375 127.765625 -34.984375 L 122.0625 -36.796875 C 120.851562 -32.992188 119.773438 -28.800781 118.828125 -24.21875 C 117.878906 -19.644531 116.109375 -15.890625 113.515625 -12.953125 C 108.679688 -7.597656 102.894531 -3.410156 96.15625 -0.390625 C 89.414062 2.628906 81.640625 4.140625 72.828125 4.140625 C 63.328125 4.140625 54.554688 2.328125 46.515625 -1.296875 C 38.484375 -4.921875 31.53125 -9.882812 25.65625 -16.1875 C 19.78125 -22.5 15.242188 -29.890625 12.046875 -38.359375 C 8.847656 -46.828125 7.25 -55.898438 7.25 -65.578125 Z M 74.90625 -103.921875 C 69.539062 -103.921875 64.613281 -102.96875 60.125 -101.0625 C 55.632812 -99.164062 51.832031 -96.488281 48.71875 -93.03125 C 45.613281 -89.582031 43.195312 -85.523438 41.46875 -80.859375 C 39.738281 -76.191406 38.875 -71.097656 38.875 -65.578125 C 38.875 -60.210938 39.738281 -55.066406 41.46875 -50.140625 C 43.195312 -45.222656 45.613281 -40.945312 48.71875 -37.3125 C 51.832031 -33.6875 55.632812 -30.796875 60.125 -28.640625 C 64.613281 -26.484375 69.539062 -25.40625 74.90625 -25.40625 C 80.257812 -25.40625 85.09375 -26.484375 89.40625 -28.640625 C 93.726562 -30.796875 97.488281 -33.726562 100.6875 -37.4375 C 103.882812 -41.15625 106.347656 -45.429688 108.078125 -50.265625 C 109.804688 -55.109375 110.753906 -60.210938 110.921875 -65.578125 C 111.097656 -76.972656 108.078125 -86.210938 101.859375 -93.296875 C 95.640625 -100.378906 86.65625 -103.921875 74.90625 -103.921875 Z M 74.90625 -103.921875 "/></g></g></g><g fill="#ff271f" fill-opacity="1"><g transform="translate(298.621643, 194.219104)"><g><path d="M 41.46875 -38.875 C 41.46875 -37.320312 41.8125 -35.8125 42.5 -34.34375 C 43.195312 -32.875 44.664062 -31.488281 46.90625 -30.1875 C 49.15625 -28.894531 52.394531 -27.859375 56.625 -27.078125 C 60.863281 -26.304688 66.523438 -25.921875 73.609375 -25.921875 C 82.421875 -25.921875 89.242188 -27 94.078125 -29.15625 C 98.921875 -31.3125 101.34375 -34.378906 101.34375 -38.359375 C 101.34375 -40.253906 100.820312 -41.765625 99.78125 -42.890625 C 98.738281 -44.015625 96.835938 -45.050781 94.078125 -46 C 91.316406 -46.945312 87.6875 -47.9375 83.1875 -48.96875 C 78.695312 -50.007812 72.910156 -51.222656 65.828125 -52.609375 C 58.054688 -54.160156 50.84375 -56.0625 44.1875 -58.3125 C 37.53125 -60.5625 31.785156 -63.328125 26.953125 -66.609375 C 22.117188 -69.890625 18.316406 -73.816406 15.546875 -78.390625 C 12.785156 -82.972656 11.40625 -88.375 11.40625 -94.59375 C 11.40625 -106.519531 15.984375 -115.765625 25.140625 -122.328125 C 34.296875 -128.890625 48.984375 -132.171875 69.203125 -132.171875 C 80.773438 -132.171875 90.445312 -131.304688 98.21875 -129.578125 C 106 -127.859375 112.265625 -125.3125 117.015625 -121.9375 C 121.765625 -118.570312 125.132812 -114.425781 127.125 -109.5 C 129.113281 -104.570312 130.109375 -98.828125 130.109375 -92.265625 L 97.453125 -92 C 97.453125 -93.5625 97.148438 -95.03125 96.546875 -96.40625 C 95.941406 -97.789062 94.644531 -99 92.65625 -100.03125 C 90.664062 -101.070312 87.8125 -101.9375 84.09375 -102.625 C 80.382812 -103.320312 75.421875 -103.671875 69.203125 -103.671875 C 60.390625 -103.671875 53.820312 -102.757812 49.5 -100.9375 C 45.175781 -99.125 43.015625 -96.664062 43.015625 -93.5625 C 43.015625 -91.65625 43.578125 -89.96875 44.703125 -88.5 C 45.828125 -87.03125 47.6875 -85.734375 50.28125 -84.609375 C 52.875 -83.492188 56.285156 -82.375 60.515625 -81.25 C 64.742188 -80.125 70.054688 -79.046875 76.453125 -78.015625 C 83.710938 -76.804688 90.796875 -75.289062 97.703125 -73.46875 C 104.617188 -71.65625 110.753906 -69.28125 116.109375 -66.34375 C 121.460938 -63.40625 125.78125 -59.691406 129.0625 -55.203125 C 132.34375 -50.710938 133.984375 -45.179688 133.984375 -38.609375 C 133.984375 -32.910156 132.988281 -27.554688 131 -22.546875 C 129.019531 -17.535156 125.738281 -13.171875 121.15625 -9.453125 C 116.582031 -5.742188 110.535156 -2.804688 103.015625 -0.640625 C 95.503906 1.515625 86.132812 2.59375 74.90625 2.59375 C 62.457031 2.59375 52.039062 1.597656 43.65625 -0.390625 C 35.28125 -2.378906 28.5 -5.1875 23.3125 -8.8125 C 18.132812 -12.4375 14.421875 -16.796875 12.171875 -21.890625 C 9.929688 -26.992188 8.8125 -32.65625 8.8125 -38.875 Z M 41.46875 -38.875 "/></g></g></g><g fill="#ff271f" fill-opacity="1"><g transform="translate(420.947986, 194.219104)"><g><path d="M 101.078125 -129.59375 L 101.078125 -101.859375 L 67.390625 -101.859375 L 67.390625 -43.546875 C 67.390625 -38.015625 68.726562 -34.296875 71.40625 -32.390625 C 74.082031 -30.492188 78.53125 -29.546875 84.75 -29.546875 L 99.78125 -29.546875 L 99.78125 0 L 68.421875 0 C 62.367188 0 57.269531 -1.296875 53.125 -3.890625 C 48.976562 -6.484375 45.609375 -9.851562 43.015625 -14 C 40.429688 -18.144531 38.578125 -22.804688 37.453125 -27.984375 C 36.328125 -33.171875 35.765625 -38.359375 35.765625 -43.546875 L 35.765625 -101.859375 L 9.84375 -101.859375 L 9.84375 -129.59375 L 35.765625 -129.59375 L 35.765625 -178.5625 L 67.390625 -178.5625 L 67.390625 -129.59375 Z M 101.078125 -129.59375 "/></g></g></g><g fill="#000000" fill-opacity="1"><g transform="translate(520.46862, 194.219104)"><g><path d="M 8.8125 -90.96875 C 8.8125 -104.445312 11.144531 -116.929688 15.8125 -128.421875 C 20.476562 -139.910156 26.957031 -149.882812 35.25 -158.34375 C 43.539062 -166.8125 53.382812 -173.421875 64.78125 -178.171875 C 76.1875 -182.929688 88.628906 -185.3125 102.109375 -185.3125 C 115.929688 -185.3125 127.941406 -183.582031 138.140625 -180.125 C 148.335938 -176.664062 156.890625 -171.957031 163.796875 -166 C 170.703125 -160.039062 176.054688 -153.128906 179.859375 -145.265625 C 183.660156 -137.398438 185.992188 -129.148438 186.859375 -120.515625 L 152.65625 -120.515625 C 151.613281 -124.316406 150.097656 -128.117188 148.109375 -131.921875 C 146.128906 -135.722656 143.28125 -139.175781 139.5625 -142.28125 C 135.84375 -145.394531 131.003906 -147.898438 125.046875 -149.796875 C 119.085938 -151.703125 111.53125 -152.65625 102.375 -152.65625 C 94.082031 -152.65625 86.304688 -151.269531 79.046875 -148.5 C 71.785156 -145.738281 65.476562 -141.679688 60.125 -136.328125 C 54.769531 -130.972656 50.535156 -124.492188 47.421875 -116.890625 C 44.316406 -109.285156 42.765625 -100.554688 42.765625 -90.703125 C 42.765625 -81.035156 44.273438 -72.351562 47.296875 -64.65625 C 50.316406 -56.96875 54.503906 -50.488281 59.859375 -45.21875 C 65.222656 -39.957031 71.53125 -35.898438 78.78125 -33.046875 C 86.039062 -30.191406 93.90625 -28.765625 102.375 -28.765625 C 111.875 -28.765625 119.773438 -29.710938 126.078125 -31.609375 C 132.390625 -33.515625 137.488281 -36.019531 141.375 -39.125 C 145.257812 -42.238281 148.238281 -45.695312 150.3125 -49.5 C 152.394531 -53.300781 153.953125 -57.101562 154.984375 -60.90625 L 189.203125 -60.90625 C 186.773438 -40.6875 178.519531 -24.832031 164.4375 -13.34375 C 150.363281 -1.851562 129.9375 3.890625 103.15625 3.890625 C 89.675781 3.890625 77.144531 1.472656 65.5625 -3.359375 C 53.988281 -8.203125 44.007812 -14.859375 35.625 -23.328125 C 27.25 -31.796875 20.6875 -41.816406 15.9375 -53.390625 C 11.1875 -64.960938 8.8125 -77.488281 8.8125 -90.96875 Z M 8.8125 -90.96875 "/></g></g></g><g fill="#000000" fill-opacity="1"><g transform="translate(708.623299, 194.219104)"><g><path d="M 15.03125 -188.15625 L 46.90625 -188.15625 L 46.90625 -125.953125 C 46.738281 -120.941406 45.660156 -115.585938 43.671875 -109.890625 C 41.679688 -104.191406 39.738281 -99.007812 37.84375 -94.34375 L 43.546875 -92.265625 C 44.410156 -94.679688 45.316406 -97.226562 46.265625 -99.90625 C 47.210938 -102.582031 48.25 -105.300781 49.375 -108.0625 C 50.5 -110.832031 51.75 -113.425781 53.125 -115.84375 C 54.507812 -118.269531 56.238281 -120.257812 58.3125 -121.8125 C 63.664062 -126.300781 69.492188 -129.363281 75.796875 -131 C 82.109375 -132.644531 89.5 -133.46875 97.96875 -133.46875 C 104.53125 -133.46875 110.660156 -132.515625 116.359375 -130.609375 C 122.066406 -128.710938 127.035156 -125.90625 131.265625 -122.1875 C 135.503906 -118.476562 138.832031 -113.859375 141.25 -108.328125 C 143.664062 -102.804688 144.875 -96.328125 144.875 -88.890625 L 144.875 0 L 113 0 L 113 -66.09375 C 113 -78.53125 110.707031 -87.640625 106.125 -93.421875 C 101.550781 -99.210938 94.515625 -102.109375 85.015625 -102.109375 C 79.828125 -102.109375 74.941406 -101.414062 70.359375 -100.03125 C 65.785156 -98.65625 61.726562 -96.453125 58.1875 -93.421875 C 54.644531 -90.398438 51.878906 -86.644531 49.890625 -82.15625 C 47.898438 -77.664062 46.90625 -72.3125 46.90625 -66.09375 L 46.90625 0 L 15.03125 0 Z M 15.03125 -188.15625 "/></g></g></g><g fill="#000000" fill-opacity="1"><g transform="translate(855.570484, 194.219104)"><g><path d="M 11.140625 -64.796875 C 11.140625 -74.640625 12.78125 -83.75 16.0625 -92.125 C 19.351562 -100.507812 24.019531 -107.769531 30.0625 -113.90625 C 36.113281 -120.039062 43.5 -124.832031 52.21875 -128.28125 C 60.945312 -131.738281 70.753906 -133.46875 81.640625 -133.46875 C 93.046875 -133.46875 103.15625 -131.65625 111.96875 -128.03125 C 120.78125 -124.40625 128.25 -119.523438 134.375 -113.390625 C 140.507812 -107.253906 145.128906 -100.164062 148.234375 -92.125 C 151.347656 -84.09375 152.820312 -75.757812 152.65625 -67.125 C 152.65625 -65.394531 152.695312 -63.234375 152.78125 -60.640625 C 152.863281 -58.054688 152.820312 -56.242188 152.65625 -55.203125 L 44.3125 -55.203125 C 44.3125 -51.578125 45.132812 -47.992188 46.78125 -44.453125 C 48.425781 -40.910156 50.84375 -37.671875 54.03125 -34.734375 C 57.226562 -31.796875 61.289062 -29.414062 66.21875 -27.59375 C 71.144531 -25.78125 76.976562 -24.875 83.71875 -24.875 C 92.695312 -24.875 99.820312 -26.425781 105.09375 -29.53125 C 110.363281 -32.644531 113.691406 -35.847656 115.078125 -39.140625 L 153.171875 -39.140625 C 152.128906 -35.847656 150.050781 -31.695312 146.9375 -26.6875 C 143.832031 -21.675781 139.429688 -16.925781 133.734375 -12.4375 C 128.035156 -7.945312 120.992188 -4.0625 112.609375 -0.78125 C 104.234375 2.5 94.425781 4.140625 83.1875 4.140625 C 71.269531 4.140625 60.773438 2.328125 51.703125 -1.296875 C 42.628906 -4.921875 35.113281 -9.84375 29.15625 -16.0625 C 23.195312 -22.289062 18.703125 -29.59375 15.671875 -37.96875 C 12.648438 -46.34375 11.140625 -55.285156 11.140625 -64.796875 Z M 80.609375 -104.453125 C 69.023438 -104.453125 60.078125 -101.859375 53.765625 -96.671875 C 47.460938 -91.484375 44.3125 -84.742188 44.3125 -76.453125 L 117.671875 -76.453125 C 117.671875 -85.441406 114.210938 -92.351562 107.296875 -97.1875 C 100.390625 -102.03125 91.492188 -104.453125 80.609375 -104.453125 Z M 80.609375 -104.453125 "/></g></g></g><g fill="#000000" fill-opacity="1"><g transform="translate(1011.329373, 194.219104)"><g><path d="M 79.3125 4.140625 C 68.59375 4.140625 58.828125 2.5 50.015625 -0.78125 C 41.203125 -4.0625 33.6875 -8.769531 27.46875 -14.90625 C 21.25 -21.039062 16.410156 -28.382812 12.953125 -36.9375 C 9.503906 -45.488281 7.78125 -55.035156 7.78125 -65.578125 C 7.78125 -76.109375 9.460938 -85.609375 12.828125 -94.078125 C 16.203125 -102.546875 20.953125 -109.71875 27.078125 -115.59375 C 33.210938 -121.46875 40.597656 -125.957031 49.234375 -129.0625 C 57.878906 -132.175781 67.472656 -133.734375 78.015625 -133.734375 C 88.722656 -133.734375 98.132812 -132.21875 106.25 -129.1875 C 114.375 -126.164062 121.285156 -122.234375 126.984375 -117.390625 C 132.691406 -112.554688 137.144531 -107.113281 140.34375 -101.0625 C 143.539062 -95.019531 145.484375 -88.976562 146.171875 -82.9375 L 111.96875 -82.9375 C 111.789062 -83.625 111.050781 -85.085938 109.75 -87.328125 C 108.457031 -89.578125 106.472656 -91.910156 103.796875 -94.328125 C 101.117188 -96.753906 97.578125 -98.914062 93.171875 -100.8125 C 88.765625 -102.71875 83.453125 -103.671875 77.234375 -103.671875 C 65.484375 -103.671875 56.238281 -100.300781 49.5 -93.5625 C 42.757812 -86.820312 39.390625 -77.578125 39.390625 -65.828125 C 39.390625 -60.128906 40.296875 -54.816406 42.109375 -49.890625 C 43.929688 -44.960938 46.523438 -40.726562 49.890625 -37.1875 C 53.253906 -33.644531 57.3125 -30.878906 62.0625 -28.890625 C 66.820312 -26.910156 72.222656 -25.921875 78.265625 -25.921875 C 84.484375 -25.921875 89.707031 -26.867188 93.9375 -28.765625 C 98.175781 -30.671875 101.675781 -32.875 104.4375 -35.375 C 107.207031 -37.882812 109.238281 -40.257812 110.53125 -42.5 C 111.832031 -44.75 112.566406 -46.21875 112.734375 -46.90625 L 146.953125 -46.90625 C 145.910156 -40.519531 143.75 -34.257812 140.46875 -28.125 C 137.1875 -21.988281 132.738281 -16.546875 127.125 -11.796875 C 121.507812 -7.046875 114.726562 -3.203125 106.78125 -0.265625 C 98.832031 2.671875 89.675781 4.140625 79.3125 4.140625 Z M 79.3125 4.140625 "/></g></g></g><g fill="#000000" fill-opacity="1"><g transform="translate(1154.648226, 194.219104)"><g><path d="M 14.25 -187.90625 L 46.125 -187.90625 L 46.125 -102.890625 C 46.125 -98.054688 45.085938 -93.085938 43.015625 -87.984375 C 40.941406 -82.890625 38.867188 -78.097656 36.796875 -73.609375 L 42.25 -71.265625 C 44.144531 -75.765625 46.34375 -80.472656 48.84375 -85.390625 C 51.351562 -90.316406 54.421875 -94.335938 58.046875 -97.453125 L 94.59375 -129.328125 L 134.25 -129.328125 L 79.828125 -79.3125 L 147.734375 0.265625 L 108.078125 0.265625 L 58.3125 -60.640625 L 45.875 -49.5 L 46.125 0 L 14.25 0 Z M 14.25 -187.90625 "/></g></g></g></g></g></svg>